<svg width="15" height="16" viewBox="0 0 15 16" fill="none" xmlns="http://www.w3.org/2000/svg">
<path fill-rule="evenodd" clip-rule="evenodd" d="M7.86681 0C7.93035 0 7.98186 0.0523801 7.98186 0.116913V0.239364C7.98186 0.303897 7.93035 0.356277 7.86681 0.356277H7.73474V0.750704C11.7682 0.876693 15 4.24071 15 8.37297C15 12.5856 11.6423 16 7.50042 16C3.35844 16 0 12.5856 0 8.37297C0 4.24102 3.23212 0.877078 7.26525 0.750781V0.356277H7.13319C7.06965 0.356277 7.01822 0.303897 7.01822 0.239364V0.116913C7.01822 0.0523801 7.06965 0 7.13319 0H7.86681ZM7.68792 1.75062V2.41987C7.68792 2.5254 7.60381 2.61093 7.50004 2.61093C7.39626 2.61093 7.31208 2.5254 7.31208 2.41987V1.75062C3.86227 1.85038 1.08504 4.67406 0.987313 8.18221H1.64545C1.74922 8.18221 1.83341 8.26775 1.83341 8.37328C1.83341 8.47888 1.74922 8.56441 1.64545 8.56441H0.987313C1.08549 12.0723 3.86249 14.8962 7.31208 14.996V14.3268C7.31208 14.2212 7.39626 14.1356 7.50004 14.1356C7.60381 14.1356 7.68792 14.2212 7.68792 14.3268V14.996C11.1378 14.8966 13.9145 12.0725 14.0127 8.56441H13.3546C13.2508 8.56441 13.1667 8.47888 13.1667 8.37328C13.1667 8.26775 13.2508 8.18221 13.3546 8.18221H14.0127C13.915 4.67375 11.1381 1.84999 7.68792 1.75062ZM7.49999 8.01702C7.69348 8.01702 7.85035 8.17655 7.85035 8.3733C7.85035 8.3936 7.8477 8.41314 7.84453 8.43245L10.0732 10.4819C10.1304 10.5345 10.1717 10.6026 10.1922 10.6782L10.2223 10.7894C10.2371 10.8435 10.1914 10.8948 10.1371 10.8854L10.0251 10.866C9.9491 10.8529 9.87838 10.8179 9.82112 10.7653L7.59205 8.7155C7.56255 8.72381 7.53206 8.72958 7.49999 8.72958C7.30658 8.72958 7.14963 8.57005 7.14963 8.3733C7.14963 8.17655 7.30658 8.01702 7.49999 8.01702Z" fill="white"/>
</svg>
