<svg width="24" height="20" viewBox="0 0 24 20" fill="none" xmlns="http://www.w3.org/2000/svg">
<path d="M24 2.7474C23.1169 3.12954 22.168 3.38608 21.1724 3.50366C22.1899 2.91041 22.9688 1.96976 23.3363 0.85007C22.3846 1.40056 21.3288 1.79873 20.2098 2.01519C19.313 1.08256 18.0322 0.5 16.6171 0.5C13.8965 0.5 11.6915 2.64585 11.6915 5.29676C11.6915 5.67356 11.7353 6.03966 11.8176 6.38973C7.72575 6.18931 4.09736 4.28129 1.67021 1.37651C1.24786 2.08467 1.00377 2.91041 1.00377 3.78959C1.00377 5.45443 1.87316 6.92152 3.19232 7.782C2.38601 7.75795 1.62633 7.54149 0.962633 7.18073V7.24219C0.962633 9.56709 2.66027 11.5045 4.9119 11.9454C4.50051 12.055 4.06445 12.1138 3.61467 12.1138C3.29654 12.1138 2.98937 12.0844 2.69044 12.0283C3.31574 13.9336 5.13404 15.3205 7.28694 15.3606C5.60302 16.646 3.48303 17.4129 1.17381 17.4129C0.77614 17.4129 0.386699 17.3916 0 17.3461C2.18032 18.7063 4.76654 19.5 7.54748 19.5C16.6034 19.5 21.5564 12.1913 21.5564 5.8526C21.5564 5.64416 21.5509 5.4384 21.5427 5.23263C22.5053 4.55387 23.3418 3.70942 24 2.7474Z" fill="#C0C0C0"/>
</svg>
